<svg id="visual" viewBox="0 0 3840 2160" width="3840" height="2160" xmlns="http://www.w3.org/2000/svg" xmlns:xlink="http://www.w3.org/1999/xlink" version="1.1"><rect x="0" y="0" width="3840" height="2160" fill="#001525"></rect><defs><linearGradient id="grad1_0" x1="43.8%" y1="100%" x2="100%" y2="0%"><stop offset="14.444444444444446%" stop-color="#fbae3c" stop-opacity="1"></stop><stop offset="85.55555555555554%" stop-color="#fbae3c" stop-opacity="1"></stop></linearGradient></defs><defs><linearGradient id="grad1_1" x1="43.8%" y1="100%" x2="100%" y2="0%"><stop offset="14.444444444444446%" stop-color="#fbae3c" stop-opacity="1"></stop><stop offset="85.55555555555554%" stop-color="#99446f" stop-opacity="1"></stop></linearGradient></defs><defs><linearGradient id="grad1_2" x1="43.8%" y1="100%" x2="100%" y2="0%"><stop offset="14.444444444444446%" stop-color="#001525" stop-opacity="1"></stop><stop offset="85.55555555555554%" stop-color="#99446f" stop-opacity="1"></stop></linearGradient></defs><defs><linearGradient id="grad2_0" x1="0%" y1="100%" x2="56.3%" y2="0%"><stop offset="14.444444444444446%" stop-color="#fbae3c" stop-opacity="1"></stop><stop offset="85.55555555555554%" stop-color="#fbae3c" stop-opacity="1"></stop></linearGradient></defs><defs><linearGradient id="grad2_1" x1="0%" y1="100%" x2="56.3%" y2="0%"><stop offset="14.444444444444446%" stop-color="#99446f" stop-opacity="1"></stop><stop offset="85.55555555555554%" stop-color="#fbae3c" stop-opacity="1"></stop></linearGradient></defs><defs><linearGradient id="grad2_2" x1="0%" y1="100%" x2="56.3%" y2="0%"><stop offset="14.444444444444446%" stop-color="#99446f" stop-opacity="1"></stop><stop offset="85.55555555555554%" stop-color="#001525" stop-opacity="1"></stop></linearGradient></defs><g transform="translate(3840, 2160)"><path d="M-1620 0C-1533.7 -142.1 -1447.4 -284.1 -1415.2 -459.8C-1382.9 -635.5 -1404.8 -844.8 -1301.7 -945.7C-1198.6 -1046.7 -970.6 -1039.3 -827 -1138.3C-683.5 -1237.3 -624.4 -1442.7 -500.6 -1540.7C-376.9 -1638.7 -188.4 -1629.4 0 -1620L0 0Z" fill="#3f3159"></path><path d="M-1080 0C-1022.5 -94.7 -964.9 -189.4 -943.4 -306.5C-922 -423.7 -936.5 -563.2 -867.8 -630.5C-799.1 -697.8 -647.1 -692.9 -551.3 -758.9C-455.6 -824.9 -416.2 -961.8 -333.7 -1027.1C-251.2 -1092.5 -125.6 -1086.2 0 -1080L0 0Z" fill="#e3685e"></path><path d="M-540 0C-511.2 -47.4 -482.5 -94.7 -471.7 -153.3C-461 -211.8 -468.3 -281.6 -433.9 -315.2C-399.5 -348.9 -323.5 -346.4 -275.7 -379.4C-227.8 -412.4 -208.1 -480.9 -166.9 -513.6C-125.6 -546.2 -62.8 -543.1 0 -540L0 0Z" fill="#fbae3c"></path></g><g transform="translate(0, 0)"><path d="M1620 0C1624.8 185.9 1629.6 371.7 1540.7 500.6C1451.8 629.5 1269.3 701.5 1172.3 851.7C1075.2 1001.9 1063.7 1230.5 945.2 1300.9C826.6 1371.3 601.2 1283.7 425.8 1310.6C250.5 1337.4 125.2 1478.7 0 1620L0 0Z" fill="#3f3159"></path><path d="M1080 0C1083.2 123.9 1086.4 247.8 1027.1 333.7C967.9 419.7 846.2 467.6 781.5 567.8C716.8 668 709.1 820.3 630.1 867.3C551.1 914.2 400.8 855.8 283.9 873.7C167 891.6 83.5 985.8 0 1080L0 0Z" fill="#e3685e"></path><path d="M540 0C541.6 62 543.2 123.9 513.6 166.9C483.9 209.8 423.1 233.8 390.8 283.9C358.4 334 354.6 410.2 315.1 433.6C275.5 457.1 200.4 427.9 141.9 436.9C83.5 445.8 41.7 492.9 0 540L0 0Z" fill="#fbae3c"></path></g></svg>