<svg id="visual" viewBox="0 0 3840 2160" width="3840" height="2160" xmlns="http://www.w3.org/2000/svg" xmlns:xlink="http://www.w3.org/1999/xlink" version="1.1"><rect x="0" y="0" width="3840" height="2160" fill="#001525"></rect><defs><linearGradient id="grad1_0" x1="43.8%" y1="100%" x2="100%" y2="0%"><stop offset="14.444444444444446%" stop-color="#fbae3c" stop-opacity="1"></stop><stop offset="85.55555555555554%" stop-color="#fbae3c" stop-opacity="1"></stop></linearGradient></defs><defs><linearGradient id="grad1_1" x1="43.8%" y1="100%" x2="100%" y2="0%"><stop offset="14.444444444444446%" stop-color="#fbae3c" stop-opacity="1"></stop><stop offset="85.55555555555554%" stop-color="#99446f" stop-opacity="1"></stop></linearGradient></defs><defs><linearGradient id="grad1_2" x1="43.8%" y1="100%" x2="100%" y2="0%"><stop offset="14.444444444444446%" stop-color="#001525" stop-opacity="1"></stop><stop offset="85.55555555555554%" stop-color="#99446f" stop-opacity="1"></stop></linearGradient></defs><defs><linearGradient id="grad2_0" x1="0%" y1="100%" x2="56.3%" y2="0%"><stop offset="14.444444444444446%" stop-color="#fbae3c" stop-opacity="1"></stop><stop offset="85.55555555555554%" stop-color="#fbae3c" stop-opacity="1"></stop></linearGradient></defs><defs><linearGradient id="grad2_1" x1="0%" y1="100%" x2="56.3%" y2="0%"><stop offset="14.444444444444446%" stop-color="#99446f" stop-opacity="1"></stop><stop offset="85.55555555555554%" stop-color="#fbae3c" stop-opacity="1"></stop></linearGradient></defs><defs><linearGradient id="grad2_2" x1="0%" y1="100%" x2="56.3%" y2="0%"><stop offset="14.444444444444446%" stop-color="#99446f" stop-opacity="1"></stop><stop offset="85.55555555555554%" stop-color="#001525" stop-opacity="1"></stop></linearGradient></defs><g transform="translate(3840, 2160)"><path d="M-1620 0C-1619.5 -177.9 -1619 -355.9 -1540.7 -500.6C-1462.4 -645.4 -1306.3 -756.9 -1173.9 -852.9C-1041.4 -948.8 -932.6 -1029.1 -825.3 -1135.9C-717.9 -1242.6 -612 -1375.7 -474.7 -1460.8C-337.3 -1545.9 -168.7 -1583 0 -1620L0 0Z" fill="#3f3159"></path><path d="M-1080 0C-1079.7 -118.6 -1079.3 -237.2 -1027.1 -333.7C-974.9 -430.2 -870.9 -504.6 -782.6 -568.6C-694.3 -632.5 -621.7 -686.1 -550.2 -757.2C-478.6 -828.4 -408 -917.2 -316.4 -973.9C-224.9 -1030.6 -112.4 -1055.3 0 -1080L0 0Z" fill="#e3685e"></path><path d="M-540 0C-539.8 -59.3 -539.7 -118.6 -513.6 -166.9C-487.5 -215.1 -435.4 -252.3 -391.3 -284.3C-347.1 -316.3 -310.9 -343 -275.1 -378.6C-239.3 -414.2 -204 -458.6 -158.2 -486.9C-112.4 -515.3 -56.2 -527.7 0 -540L0 0Z" fill="#fbae3c"></path></g><g transform="translate(0, 0)"><path d="M1620 0C1617.9 178.7 1615.8 357.4 1540.7 500.6C1465.6 643.9 1317.4 751.7 1205.4 875.8C1093.4 999.9 1017.6 1140.3 902.3 1241.8C786.9 1343.4 632.2 1406.2 475.3 1462.7C318.3 1519.3 159.2 1569.6 0 1620L0 0Z" fill="#3f3159"></path><path d="M1080 0C1078.6 119.1 1077.2 238.2 1027.1 333.7C977.1 429.2 878.3 501.1 803.6 583.9C728.9 666.6 678.4 760.2 601.5 827.9C524.6 895.6 421.5 937.4 316.8 975.1C212.2 1012.9 106.1 1046.4 0 1080L0 0Z" fill="#e3685e"></path><path d="M540 0C539.3 59.6 538.6 119.1 513.6 166.9C488.5 214.6 439.1 250.6 401.8 291.9C364.5 333.3 339.2 380.1 300.8 413.9C262.3 447.8 210.7 468.7 158.4 487.6C106.1 506.4 53.1 523.2 0 540L0 0Z" fill="#fbae3c"></path></g></svg>