<svg id="visual" viewBox="0 0 960 540" width="960" height="540" xmlns="http://www.w3.org/2000/svg" xmlns:xlink="http://www.w3.org/1999/xlink" version="1.1"><path d="M0 66L14.5 66C29 66 58 66 87.2 68.7C116.3 71.3 145.7 76.7 174.8 74C204 71.3 233 60.7 262 58C291 55.3 320 60.7 349 62.3C378 64 407 62 436.2 55.7C465.3 49.3 494.7 38.7 523.8 40.5C553 42.3 582 56.7 611 67.5C640 78.3 669 85.7 698 92C727 98.3 756 103.7 785.2 102.7C814.3 101.7 843.7 94.3 872.8 83.5C902 72.7 931 58.3 945.5 51.2L960 44L960 0L945.5 0C931 0 902 0 872.8 0C843.7 0 814.3 0 785.2 0C756 0 727 0 698 0C669 0 640 0 611 0C582 0 553 0 523.8 0C494.7 0 465.3 0 436.2 0C407 0 378 0 349 0C320 0 291 0 262 0C233 0 204 0 174.8 0C145.7 0 116.3 0 87.2 0C58 0 29 0 14.5 0L0 0Z" fill="#004cbb"></path><path d="M0 109L14.5 116.2C29 123.3 58 137.7 87.2 144.8C116.3 152 145.7 152 174.8 140.3C204 128.7 233 105.3 262 108C291 110.7 320 139.3 349 146.5C378 153.7 407 139.3 436.2 134C465.3 128.7 494.7 132.3 523.8 129.7C553 127 582 118 611 129.7C640 141.3 669 173.7 698 189C727 204.3 756 202.7 785.2 200C814.3 197.3 843.7 193.7 872.8 175.7C902 157.7 931 125.3 945.5 109.2L960 93L960 42L945.5 49.2C931 56.3 902 70.7 872.8 81.5C843.7 92.3 814.3 99.7 785.2 100.7C756 101.7 727 96.3 698 90C669 83.7 640 76.3 611 65.5C582 54.7 553 40.3 523.8 38.5C494.7 36.7 465.3 47.3 436.2 53.7C407 60 378 62 349 60.3C320 58.7 291 53.3 262 56C233 58.7 204 69.3 174.8 72C145.7 74.7 116.3 69.3 87.2 66.7C58 64 29 64 14.5 64L0 64Z" fill="#0062f3"></path><path d="M0 298L14.5 299.8C29 301.7 58 305.3 87.2 318C116.3 330.7 145.7 352.3 174.8 355.8C204 359.3 233 344.7 262 317.7C291 290.7 320 251.3 349 225.3C378 199.3 407 186.7 436.2 192C465.3 197.3 494.7 220.7 523.8 225.2C553 229.7 582 215.3 611 237C640 258.7 669 316.3 698 331.7C727 347 756 320 785.2 298.3C814.3 276.7 843.7 260.3 872.8 260.3C902 260.3 931 276.7 945.5 284.8L960 293L960 91L945.5 107.2C931 123.3 902 155.7 872.8 173.7C843.7 191.7 814.3 195.3 785.2 198C756 200.7 727 202.3 698 187C669 171.7 640 139.3 611 127.7C582 116 553 125 523.8 127.7C494.7 130.3 465.3 126.7 436.2 132C407 137.3 378 151.7 349 144.5C320 137.3 291 108.7 262 106C233 103.3 204 126.7 174.8 138.3C145.7 150 116.3 150 87.2 142.8C58 135.7 29 121.3 14.5 114.2L0 107Z" fill="#4988ff"></path><path d="M0 401L14.5 402.7C29 404.3 58 407.7 87.2 413.8C116.3 420 145.7 429 174.8 430C204 431 233 424 262 418.7C291 413.3 320 409.7 349 405.2C378 400.7 407 395.3 436.2 388.2C465.3 381 494.7 372 523.8 376.5C553 381 582 399 611 412.5C640 426 669 435 698 440.3C727 445.7 756 447.3 785.2 436.5C814.3 425.7 843.7 402.3 872.8 394.3C902 386.3 931 393.7 945.5 397.3L960 401L960 291L945.5 282.8C931 274.7 902 258.3 872.8 258.3C843.7 258.3 814.3 274.7 785.2 296.3C756 318 727 345 698 329.7C669 314.3 640 256.7 611 235C582 213.3 553 227.7 523.8 223.2C494.7 218.7 465.3 195.3 436.2 190C407 184.7 378 197.3 349 223.3C320 249.3 291 288.7 262 315.7C233 342.7 204 357.3 174.8 353.8C145.7 350.3 116.3 328.7 87.2 316C58 303.3 29 299.7 14.5 297.8L0 296Z" fill="#6198ff"></path><path d="M0 455L14.5 452.2C29 449.3 58 443.7 87.2 443.7C116.3 443.7 145.7 449.3 174.8 454.8C204 460.3 233 465.7 262 462C291 458.3 320 445.7 349 436.7C378 427.7 407 422.3 436.2 419.7C465.3 417 494.7 417 523.8 424.2C553 431.3 582 445.7 611 453.7C640 461.7 669 463.3 698 467C727 470.7 756 476.3 785.2 467.3C814.3 458.3 843.7 434.7 872.8 426.5C902 418.3 931 425.7 945.5 429.3L960 433L960 399L945.5 395.3C931 391.7 902 384.3 872.8 392.3C843.7 400.3 814.3 423.7 785.2 434.5C756 445.3 727 443.7 698 438.3C669 433 640 424 611 410.5C582 397 553 379 523.8 374.5C494.7 370 465.3 379 436.2 386.2C407 393.3 378 398.7 349 403.2C320 407.7 291 411.3 262 416.7C233 422 204 429 174.8 428C145.7 427 116.3 418 87.2 411.8C58 405.7 29 402.3 14.5 400.7L0 399Z" fill="#4988ff"></path><path d="M0 482L14.5 481C29 480 58 478 87.2 477C116.3 476 145.7 476 174.8 484.2C204 492.3 233 508.7 262 510.5C291 512.3 320 499.7 349 495.2C378 490.7 407 494.3 436.2 492.5C465.3 490.7 494.7 483.3 523.8 480.7C553 478 582 480 611 486.3C640 492.7 669 503.3 698 508.7C727 514 756 514 785.2 506.8C814.3 499.7 843.7 485.3 872.8 480C902 474.7 931 478.3 945.5 480.2L960 482L960 431L945.5 427.3C931 423.7 902 416.3 872.8 424.5C843.7 432.7 814.3 456.3 785.2 465.3C756 474.3 727 468.7 698 465C669 461.3 640 459.7 611 451.7C582 443.7 553 429.3 523.8 422.2C494.7 415 465.3 415 436.2 417.7C407 420.3 378 425.7 349 434.7C320 443.7 291 456.3 262 460C233 463.7 204 458.3 174.8 452.8C145.7 447.3 116.3 441.7 87.2 441.7C58 441.7 29 447.3 14.5 450.2L0 453Z" fill="#0062f3"></path><path d="M0 541L14.5 541C29 541 58 541 87.2 541C116.3 541 145.7 541 174.8 541C204 541 233 541 262 541C291 541 320 541 349 541C378 541 407 541 436.2 541C465.3 541 494.7 541 523.8 541C553 541 582 541 611 541C640 541 669 541 698 541C727 541 756 541 785.2 541C814.3 541 843.7 541 872.8 541C902 541 931 541 945.5 541L960 541L960 480L945.5 478.2C931 476.3 902 472.7 872.8 478C843.7 483.3 814.3 497.7 785.2 504.8C756 512 727 512 698 506.7C669 501.3 640 490.7 611 484.3C582 478 553 476 523.8 478.7C494.7 481.3 465.3 488.7 436.2 490.5C407 492.3 378 488.7 349 493.2C320 497.7 291 510.3 262 508.5C233 506.7 204 490.3 174.8 482.2C145.7 474 116.3 474 87.2 475C58 476 29 478 14.5 479L0 480Z" fill="#004cbb"></path></svg>