<svg id="visual" viewBox="0 0 960 540" width="960" height="540" xmlns="http://www.w3.org/2000/svg" xmlns:xlink="http://www.w3.org/1999/xlink" version="1.1"><path d="M0 82L14.5 97.3C29 112.7 58 143.3 87.2 153.2C116.3 163 145.7 152 174.8 138.5C204 125 233 109 262 97.3C291 85.7 320 78.3 349 81C378 83.7 407 96.3 436.2 100.8C465.3 105.3 494.7 101.7 523.8 97.2C553 92.7 582 87.3 611 93.7C640 100 669 118 698 118.8C727 119.7 756 103.3 785.2 107.8C814.3 112.3 843.7 137.7 872.8 141.3C902 145 931 127 945.5 118L960 109L960 0L945.5 0C931 0 902 0 872.8 0C843.7 0 814.3 0 785.2 0C756 0 727 0 698 0C669 0 640 0 611 0C582 0 553 0 523.8 0C494.7 0 465.3 0 436.2 0C407 0 378 0 349 0C320 0 291 0 262 0C233 0 204 0 174.8 0C145.7 0 116.3 0 87.2 0C58 0 29 0 14.5 0L0 0Z" fill="#004cbb"></path><path d="M0 212L14.5 212.8C29 213.7 58 215.3 87.2 219.8C116.3 224.3 145.7 231.7 174.8 219C204 206.3 233 173.7 262 164.7C291 155.7 320 170.3 349 178.5C378 186.7 407 188.3 436.2 189.2C465.3 190 494.7 190 523.8 190.8C553 191.7 582 193.3 611 195.2C640 197 669 199 698 186.5C727 174 756 147 785.2 148.8C814.3 150.7 843.7 181.3 872.8 188.5C902 195.7 931 179.3 945.5 171.2L960 163L960 107L945.5 116C931 125 902 143 872.8 139.3C843.7 135.7 814.3 110.3 785.2 105.8C756 101.3 727 117.7 698 116.8C669 116 640 98 611 91.7C582 85.3 553 90.7 523.8 95.2C494.7 99.7 465.3 103.3 436.2 98.8C407 94.3 378 81.7 349 79C320 76.3 291 83.7 262 95.3C233 107 204 123 174.8 136.5C145.7 150 116.3 161 87.2 151.2C58 141.3 29 110.7 14.5 95.3L0 80Z" fill="#0062f3"></path><path d="M0 244L14.5 242.2C29 240.3 58 236.7 87.2 241.2C116.3 245.7 145.7 258.3 174.8 247.5C204 236.7 233 202.3 262 196C291 189.7 320 211.3 349 222.2C378 233 407 233 436.2 234.8C465.3 236.7 494.7 240.3 523.8 244.8C553 249.3 582 254.7 611 253.8C640 253 669 246 698 227.2C727 208.3 756 177.7 785.2 185.7C814.3 193.7 843.7 240.3 872.8 251.2C902 262 931 237 945.5 224.5L960 212L960 161L945.5 169.2C931 177.3 902 193.7 872.8 186.5C843.7 179.3 814.3 148.7 785.2 146.8C756 145 727 172 698 184.5C669 197 640 195 611 193.2C582 191.3 553 189.7 523.8 188.8C494.7 188 465.3 188 436.2 187.2C407 186.3 378 184.7 349 176.5C320 168.3 291 153.7 262 162.7C233 171.7 204 204.3 174.8 217C145.7 229.7 116.3 222.3 87.2 217.8C58 213.3 29 211.7 14.5 210.8L0 210Z" fill="#4988ff"></path><path d="M0 287L14.5 291.5C29 296 58 305 87.2 315C116.3 325 145.7 336 174.8 323.5C204 311 233 275 262 268.7C291 262.3 320 285.7 349 298.2C378 310.7 407 312.3 436.2 304.2C465.3 296 494.7 278 523.8 277.2C553 276.3 582 292.7 611 303.5C640 314.3 669 319.7 698 299.8C727 280 756 235 785.2 241.3C814.3 247.7 843.7 305.3 872.8 320.7C902 336 931 309 945.5 295.5L960 282L960 210L945.5 222.5C931 235 902 260 872.8 249.2C843.7 238.3 814.3 191.7 785.2 183.7C756 175.7 727 206.3 698 225.2C669 244 640 251 611 251.8C582 252.7 553 247.3 523.8 242.8C494.7 238.3 465.3 234.7 436.2 232.8C407 231 378 231 349 220.2C320 209.3 291 187.7 262 194C233 200.3 204 234.7 174.8 245.5C145.7 256.3 116.3 243.7 87.2 239.2C58 234.7 29 238.3 14.5 240.2L0 242Z" fill="#6198ff"></path><path d="M0 341L14.5 339.2C29 337.3 58 333.7 87.2 340.8C116.3 348 145.7 366 174.8 357C204 348 233 312 262 309.3C291 306.7 320 337.3 349 350C378 362.7 407 357.3 436.2 349.3C465.3 341.3 494.7 330.7 523.8 330.7C553 330.7 582 341.3 611 345.8C640 350.3 669 348.7 698 332.5C727 316.3 756 285.7 785.2 291.8C814.3 298 843.7 341 872.8 348.2C902 355.3 931 326.7 945.5 312.3L960 298L960 280L945.5 293.5C931 307 902 334 872.8 318.7C843.7 303.3 814.3 245.7 785.2 239.3C756 233 727 278 698 297.8C669 317.7 640 312.3 611 301.5C582 290.7 553 274.3 523.8 275.2C494.7 276 465.3 294 436.2 302.2C407 310.3 378 308.7 349 296.2C320 283.7 291 260.3 262 266.7C233 273 204 309 174.8 321.5C145.7 334 116.3 323 87.2 313C58 303 29 294 14.5 289.5L0 285Z" fill="#4988ff"></path><path d="M0 395L14.5 398.7C29 402.3 58 409.7 87.2 421.3C116.3 433 145.7 449 174.8 431.8C204 414.7 233 364.3 262 352.7C291 341 320 368 349 384.2C378 400.3 407 405.7 436.2 399.3C465.3 393 494.7 375 523.8 378.7C553 382.3 582 407.7 611 414C640 420.3 669 407.7 698 395C727 382.3 756 369.7 785.2 373.3C814.3 377 843.7 397 872.8 398C902 399 931 381 945.5 372L960 363L960 296L945.5 310.3C931 324.7 902 353.3 872.8 346.2C843.7 339 814.3 296 785.2 289.8C756 283.7 727 314.3 698 330.5C669 346.7 640 348.3 611 343.8C582 339.3 553 328.7 523.8 328.7C494.7 328.7 465.3 339.3 436.2 347.3C407 355.3 378 360.7 349 348C320 335.3 291 304.7 262 307.3C233 310 204 346 174.8 355C145.7 364 116.3 346 87.2 338.8C58 331.7 29 335.3 14.5 337.2L0 339Z" fill="#0062f3"></path><path d="M0 541L14.5 541C29 541 58 541 87.2 541C116.3 541 145.7 541 174.8 541C204 541 233 541 262 541C291 541 320 541 349 541C378 541 407 541 436.2 541C465.3 541 494.7 541 523.8 541C553 541 582 541 611 541C640 541 669 541 698 541C727 541 756 541 785.2 541C814.3 541 843.7 541 872.8 541C902 541 931 541 945.5 541L960 541L960 361L945.5 370C931 379 902 397 872.8 396C843.7 395 814.3 375 785.2 371.3C756 367.7 727 380.3 698 393C669 405.7 640 418.3 611 412C582 405.7 553 380.3 523.8 376.7C494.7 373 465.3 391 436.2 397.3C407 403.7 378 398.3 349 382.2C320 366 291 339 262 350.7C233 362.3 204 412.7 174.8 429.8C145.7 447 116.3 431 87.2 419.3C58 407.7 29 400.3 14.5 396.7L0 393Z" fill="#004cbb"></path></svg>